<mxfile host="app.diagrams.net" agent="Mozilla/5.0 (Windows NT 10.0; Win64; x64) AppleWebKit/537.36 (KHTML, like Gecko) Chrome/130.0.0.0 Safari/537.36 Edg/130.0.0.0" version="24.7.17">
  <diagram id="C5RBs43oDa-KdzZeNtuy" name="Page-1">
    <mxGraphModel dx="1213" dy="768" grid="1" gridSize="10" guides="1" tooltips="1" connect="1" arrows="1" fold="1" page="1" pageScale="1" pageWidth="827" pageHeight="1169" math="0" shadow="0">
      <root>
        <mxCell id="WIyWlLk6GJQsqaUBKTNV-0" />
        <mxCell id="WIyWlLk6GJQsqaUBKTNV-1" parent="WIyWlLk6GJQsqaUBKTNV-0" />
        <mxCell id="Dp78VjWUB4hCw7y9QgRw-6" style="edgeStyle=orthogonalEdgeStyle;rounded=0;orthogonalLoop=1;jettySize=auto;html=1;exitX=0.5;exitY=1;exitDx=0;exitDy=0;entryX=0.5;entryY=0;entryDx=0;entryDy=0;" parent="WIyWlLk6GJQsqaUBKTNV-1" source="Dp78VjWUB4hCw7y9QgRw-1" target="Dp78VjWUB4hCw7y9QgRw-4" edge="1">
          <mxGeometry relative="1" as="geometry" />
        </mxCell>
        <mxCell id="Dp78VjWUB4hCw7y9QgRw-1" value="&lt;font style=&quot;font-size: 14px;&quot;&gt;程序开始&lt;/font&gt;" style="ellipse;whiteSpace=wrap;html=1;" parent="WIyWlLk6GJQsqaUBKTNV-1" vertex="1">
          <mxGeometry x="340" y="80" width="120" height="40" as="geometry" />
        </mxCell>
        <mxCell id="Dp78VjWUB4hCw7y9QgRw-9" style="edgeStyle=orthogonalEdgeStyle;rounded=0;orthogonalLoop=1;jettySize=auto;html=1;exitX=0.5;exitY=1;exitDx=0;exitDy=0;entryX=0.5;entryY=0;entryDx=0;entryDy=0;" parent="WIyWlLk6GJQsqaUBKTNV-1" source="Dp78VjWUB4hCw7y9QgRw-4" target="Dp78VjWUB4hCw7y9QgRw-8" edge="1">
          <mxGeometry relative="1" as="geometry" />
        </mxCell>
        <mxCell id="Dp78VjWUB4hCw7y9QgRw-4" value="&lt;font style=&quot;font-size: 14px;&quot;&gt;输入addr&lt;/font&gt;" style="shape=parallelogram;perimeter=parallelogramPerimeter;whiteSpace=wrap;html=1;fixedSize=1;" parent="WIyWlLk6GJQsqaUBKTNV-1" vertex="1">
          <mxGeometry x="340" y="160" width="120" height="40" as="geometry" />
        </mxCell>
        <mxCell id="Dp78VjWUB4hCw7y9QgRw-11" style="edgeStyle=orthogonalEdgeStyle;rounded=0;orthogonalLoop=1;jettySize=auto;html=1;entryX=0;entryY=0.5;entryDx=0;entryDy=0;" parent="WIyWlLk6GJQsqaUBKTNV-1" source="Dp78VjWUB4hCw7y9QgRw-8" target="Dp78VjWUB4hCw7y9QgRw-10" edge="1">
          <mxGeometry relative="1" as="geometry" />
        </mxCell>
        <mxCell id="Dp78VjWUB4hCw7y9QgRw-15" value="&lt;font style=&quot;font-size: 14px;&quot;&gt;是&lt;/font&gt;" style="edgeLabel;html=1;align=center;verticalAlign=middle;resizable=0;points=[];fontFamily=Helvetica;fontSize=11;fontColor=default;labelBackgroundColor=default;fillColor=none;gradientColor=none;" parent="Dp78VjWUB4hCw7y9QgRw-11" vertex="1" connectable="0">
          <mxGeometry x="-0.1778" y="3" relative="1" as="geometry">
            <mxPoint y="-7" as="offset" />
          </mxGeometry>
        </mxCell>
        <mxCell id="UuwzFBKIri_2oaaXKVhX-11" style="edgeStyle=orthogonalEdgeStyle;rounded=0;orthogonalLoop=1;jettySize=auto;html=1;exitX=0.5;exitY=1;exitDx=0;exitDy=0;entryX=0.5;entryY=0;entryDx=0;entryDy=0;" edge="1" parent="WIyWlLk6GJQsqaUBKTNV-1" source="Dp78VjWUB4hCw7y9QgRw-8" target="UuwzFBKIri_2oaaXKVhX-0">
          <mxGeometry relative="1" as="geometry" />
        </mxCell>
        <mxCell id="Dp78VjWUB4hCw7y9QgRw-8" value="&lt;font style=&quot;font-size: 14px;&quot;&gt;输入是否为EOF&lt;/font&gt;" style="rhombus;whiteSpace=wrap;html=1;" parent="WIyWlLk6GJQsqaUBKTNV-1" vertex="1">
          <mxGeometry x="325" y="230" width="150" height="60" as="geometry" />
        </mxCell>
        <mxCell id="Dp78VjWUB4hCw7y9QgRw-10" value="&lt;font style=&quot;font-size: 14px;&quot;&gt;程序结束&lt;/font&gt;" style="ellipse;whiteSpace=wrap;html=1;" parent="WIyWlLk6GJQsqaUBKTNV-1" vertex="1">
          <mxGeometry x="520" y="240" width="120" height="40" as="geometry" />
        </mxCell>
        <mxCell id="Dp78VjWUB4hCw7y9QgRw-29" style="edgeStyle=orthogonalEdgeStyle;rounded=0;orthogonalLoop=1;jettySize=auto;html=1;exitX=0.5;exitY=1;exitDx=0;exitDy=0;fontFamily=Helvetica;fontSize=11;fontColor=default;labelBackgroundColor=default;resizable=0;" parent="WIyWlLk6GJQsqaUBKTNV-1" source="Dp78VjWUB4hCw7y9QgRw-25" edge="1">
          <mxGeometry relative="1" as="geometry">
            <mxPoint x="400" y="140" as="targetPoint" />
            <Array as="points">
              <mxPoint x="400" y="720" />
              <mxPoint x="210" y="720" />
              <mxPoint x="210" y="140" />
            </Array>
          </mxGeometry>
        </mxCell>
        <mxCell id="Dp78VjWUB4hCw7y9QgRw-25" value="输出&lt;br&gt;a.b.c.d" style="shape=parallelogram;perimeter=parallelogramPerimeter;whiteSpace=wrap;html=1;fixedSize=1;align=center;verticalAlign=middle;fontFamily=Helvetica;fontSize=14;fontColor=default;labelBackgroundColor=default;resizable=1;fillColor=none;gradientColor=none;movable=1;rotatable=1;deletable=1;editable=1;locked=0;connectable=1;" parent="WIyWlLk6GJQsqaUBKTNV-1" vertex="1">
          <mxGeometry x="340" y="640" width="120" height="40" as="geometry" />
        </mxCell>
        <mxCell id="UuwzFBKIri_2oaaXKVhX-8" value="" style="edgeStyle=orthogonalEdgeStyle;rounded=0;orthogonalLoop=1;jettySize=auto;html=1;" edge="1" parent="WIyWlLk6GJQsqaUBKTNV-1" source="UuwzFBKIri_2oaaXKVhX-0" target="UuwzFBKIri_2oaaXKVhX-3">
          <mxGeometry relative="1" as="geometry" />
        </mxCell>
        <mxCell id="UuwzFBKIri_2oaaXKVhX-0" value="&lt;font style=&quot;font-size: 14px;&quot;&gt;将addr右移24位&lt;br&gt;并与0xFF进行位与得到a&lt;/font&gt;" style="rounded=0;whiteSpace=wrap;html=1;" vertex="1" parent="WIyWlLk6GJQsqaUBKTNV-1">
          <mxGeometry x="317.5" y="320" width="165" height="40" as="geometry" />
        </mxCell>
        <mxCell id="UuwzFBKIri_2oaaXKVhX-9" value="" style="edgeStyle=orthogonalEdgeStyle;rounded=0;orthogonalLoop=1;jettySize=auto;html=1;" edge="1" parent="WIyWlLk6GJQsqaUBKTNV-1" source="UuwzFBKIri_2oaaXKVhX-3" target="UuwzFBKIri_2oaaXKVhX-4">
          <mxGeometry relative="1" as="geometry" />
        </mxCell>
        <mxCell id="UuwzFBKIri_2oaaXKVhX-3" value="&lt;font style=&quot;font-size: 14px;&quot;&gt;将addr右移16位&lt;br&gt;并与0xFF进行位与得到b&lt;/font&gt;" style="rounded=0;whiteSpace=wrap;html=1;" vertex="1" parent="WIyWlLk6GJQsqaUBKTNV-1">
          <mxGeometry x="317.5" y="400" width="165" height="40" as="geometry" />
        </mxCell>
        <mxCell id="UuwzFBKIri_2oaaXKVhX-12" value="" style="edgeStyle=orthogonalEdgeStyle;rounded=0;orthogonalLoop=1;jettySize=auto;html=1;" edge="1" parent="WIyWlLk6GJQsqaUBKTNV-1" source="UuwzFBKIri_2oaaXKVhX-4" target="UuwzFBKIri_2oaaXKVhX-5">
          <mxGeometry relative="1" as="geometry" />
        </mxCell>
        <mxCell id="UuwzFBKIri_2oaaXKVhX-4" value="&lt;font style=&quot;font-size: 14px;&quot;&gt;将addr右移8位&lt;br&gt;并与0xFF进行位与得到c&lt;/font&gt;" style="rounded=0;whiteSpace=wrap;html=1;" vertex="1" parent="WIyWlLk6GJQsqaUBKTNV-1">
          <mxGeometry x="317.5" y="480" width="165" height="40" as="geometry" />
        </mxCell>
        <mxCell id="UuwzFBKIri_2oaaXKVhX-13" value="" style="edgeStyle=orthogonalEdgeStyle;rounded=0;orthogonalLoop=1;jettySize=auto;html=1;" edge="1" parent="WIyWlLk6GJQsqaUBKTNV-1" source="UuwzFBKIri_2oaaXKVhX-5" target="Dp78VjWUB4hCw7y9QgRw-25">
          <mxGeometry relative="1" as="geometry" />
        </mxCell>
        <mxCell id="UuwzFBKIri_2oaaXKVhX-5" value="&lt;font style=&quot;font-size: 14px;&quot;&gt;将addr与0xFF进行位与&lt;br&gt;得到d&lt;/font&gt;" style="rounded=0;whiteSpace=wrap;html=1;" vertex="1" parent="WIyWlLk6GJQsqaUBKTNV-1">
          <mxGeometry x="317.5" y="560" width="165" height="40" as="geometry" />
        </mxCell>
      </root>
    </mxGraphModel>
  </diagram>
</mxfile>
